<svg width="96" height="60" viewBox="0 0 96 60" fill="none" xmlns="http://www.w3.org/2000/svg">
<path fill-rule="evenodd" clip-rule="evenodd" d="M19.1597 24.76C18.9983 25.28 17.1832 26.92 15.0857 28.44C10.326 31.96 8.30924 34 6.97815 36.72C5.12269 40.52 5.44538 44.44 7.62353 44.72C8.99496 44.92 13.7546 43.16 21.1765 39.72C30.2118 35.52 32.6319 34.68 36.3025 34.64C39.126 34.64 39.6101 34.76 43.321 36.56C44.0079 36.888 44.6442 37.2 45.2353 37.4899C46.5186 38.1192 47.5887 38.644 48.5 39C48.5 39 49.9364 39.8141 49.9765 40C50.0423 40.3054 49 41 49 41C48.7735 41.051 48.5579 41.1032 48.3524 41.1568C48.3191 41.1655 48.2862 41.1742 48.2534 41.183C45.3187 41.9674 44.4877 43.0579 43.442 45.28C41.7479 48.8 40.6992 52.84 40.4571 56.52C40.4189 57.0977 40.392 57.597 40.3775 58.0225L40.3774 58.0272C40.3309 59.3956 40.4128 60 40.6588 60C40.9283 60 41.5521 59.7175 42.3891 59.2493C45.4364 57.5446 51.3135 53.3769 53.2437 51.4L54.6555 49.96L60.5 43.5L65.9092 43.72C76.1546 42.92 83.6168 41.32 90.3529 38.44C94.9916 36.48 96 35.48 96 32.88C95.9597 30.44 95.1933 29.12 91.9664 26.16C85.4319 20.16 82.5681 18.52 77.3647 17.96C75.3076 17.72 72 17.24 69.9832 16.88L66.3529 16.2L64.2958 12.52C63.1664 10.48 61.5529 7.8 60.7059 6.52C58.8504 3.76 55.1395 0 54.2924 0C53.9294 0 53.042 0.96 52.2756 2.08C50.3395 5.12 47.637 7.44 42.2319 10.76C36.9882 13.96 35.8992 15.2 35.8992 17.84C35.8992 18.4529 35.9636 18.9594 36.1101 19.3923C36.2007 19.6603 36.3228 19.9001 36.4804 20.1196C36.7664 20.5176 37.1693 20.8489 37.7143 21.16C38.1138 21.4076 38.1114 21.5173 37.5156 21.508L37.4988 21.5077C37.1754 21.5015 36.6828 21.4616 35.9923 21.3908C35.8977 21.3811 35.7995 21.3708 35.6975 21.36C35.4051 21.3358 35.1201 21.3044 34.8411 21.2655C33.2722 21.0468 31.8921 20.5932 30.4538 19.88C29.1227 19.24 25.7748 17.76 22.9916 16.6C20.2084 15.44 16.0538 13.68 13.7143 12.68C11.3748 11.68 8.38992 10.56 7.05882 10.2C5.71985 9.85734 3.79117 9.64081 2.28809 9.59952C2.18039 9.59657 2.07487 9.59451 1.97191 9.59337C0.828045 9.5807 0 9.68131 0 9.92C0 10.0761 0.509703 10.6584 1.26553 11.4128C1.32587 11.4731 1.38778 11.5344 1.45113 11.5967C2.62785 12.7538 4.29962 14.2447 5.60672 15.24C6.61513 16 9.76134 17.76 12.6655 19.2C18.1916 21.92 19.684 23.2 19.1597 24.76ZM42.4367 56.9024C43.3059 56.3721 44.3189 55.7122 45.3682 54.9943C48.0522 53.1582 50.7356 51.1059 51.8127 50.0028L51.8156 49.9999L53.1992 48.5885L59.6453 41.4636L65.8715 41.7168C75.9217 40.9243 83.121 39.3569 89.5667 36.601L89.5745 36.5977C91.9272 35.6036 92.99 34.9901 93.512 34.4756C93.8326 34.1596 93.9981 33.8597 94 32.8963C93.9826 31.9394 93.8356 31.3678 93.4609 30.7402C93.022 30.0051 92.215 29.1021 90.6144 27.6339C87.3603 24.6459 85.1531 22.8715 83.1847 21.7625C81.2882 20.694 79.5463 20.2063 77.1507 19.9485L77.1418 19.9476L77.1329 19.9465C75.0397 19.7023 71.692 19.2166 69.6317 18.8489L69.6234 18.8474L65.0642 17.9934L62.546 13.4887C61.437 11.4855 59.8543 8.85807 59.0421 7.62992C58.2025 6.38229 56.9005 4.85134 55.6961 3.62839C55.2446 3.17002 54.8279 2.77642 54.4743 2.46994C54.3038 2.6815 54.1228 2.92363 53.9437 3.18394C52.4919 5.45497 50.6713 7.32597 48 9.31575V36.6045C48.444 36.8112 48.8483 36.9889 49.2278 37.1371L49.3614 37.1893L49.487 37.2605L49.4884 37.2613L49.4927 37.2637L49.5073 37.272L49.5586 37.3014C49.6018 37.3263 49.6628 37.3616 49.7357 37.4043C49.8803 37.4889 50.0778 37.6064 50.2805 37.7326C50.4756 37.8541 50.7082 38.004 50.9085 38.1502C51.0038 38.2199 51.1356 38.3202 51.2628 38.4384C51.325 38.4962 51.4242 38.5931 51.5253 38.7217C51.5928 38.8075 51.8314 39.1136 51.9316 39.5787C52.0691 40.2167 51.8794 40.7297 51.7701 40.9671C51.6497 41.2285 51.5003 41.4285 51.3993 41.5519C51.1941 41.8026 50.9596 42.0114 50.7988 42.1464C50.6233 42.2937 50.4536 42.4207 50.3335 42.5076C50.2718 42.5521 50.2195 42.5888 50.181 42.6154L50.1336 42.6478L50.1183 42.6581L50.1129 42.6617L50.1108 42.6632L50.1091 42.6643L49.801 42.8696L49.4397 42.9511C47.7901 43.3229 47.0424 43.7029 46.5932 44.0769C46.1459 44.4494 45.7962 44.9745 45.2517 46.1316L45.2479 46.1395L45.2442 46.1473C43.6599 49.439 42.6778 53.2301 42.4528 56.652L42.4478 56.7282L42.4367 56.9024Z" fill="black"/>
</svg>
