<svg width="96" height="60" viewBox="0 0 96 60" fill="none" xmlns="http://www.w3.org/2000/svg">
<path fill-rule="evenodd" clip-rule="evenodd" d="M15.0857 28.44C17.1832 26.92 18.9983 25.28 19.1597 24.76C19.684 23.2 18.1916 21.92 12.6655 19.2C9.76134 17.76 6.61513 16 5.60672 15.24C4.29962 14.2447 2.62785 12.7538 1.45113 11.5967C1.38778 11.5344 1.32587 11.4731 1.26553 11.4128C0.509703 10.6584 0 10.0761 0 9.92C0 9.68131 0.828045 9.5807 1.97191 9.59337C2.07487 9.59451 2.18039 9.59657 2.28809 9.59952C3.79117 9.64081 5.71985 9.85734 7.05882 10.2C8.38992 10.56 11.3748 11.68 13.7143 12.68C16.0538 13.68 20.2084 15.44 22.9916 16.6C25.7748 17.76 29.1227 19.24 30.4538 19.88C31.8921 20.5932 33.2722 21.0468 34.8411 21.2655C35.1201 21.3044 35.4051 21.3358 35.6975 21.36C35.7995 21.3708 35.8977 21.3811 35.9923 21.3908C36.6828 21.4616 37.1754 21.5015 37.4988 21.5077L37.5156 21.508C38.1114 21.5173 38.1138 21.4076 37.7143 21.16C37.1693 20.8489 36.7664 20.5176 36.4804 20.1196C36.3228 19.9001 36.2007 19.6603 36.1101 19.3923C35.9636 18.9594 35.8992 18.4529 35.8992 17.84C35.8992 15.2 36.9882 13.96 42.2319 10.76C47.637 7.44 50.3395 5.12 52.2756 2.08C53.042 0.96 53.9294 0 54.2924 0C55.1395 0 58.8504 3.76 60.7059 6.52C61.5529 7.8 63.1664 10.48 64.2958 12.52L66.3529 16.2L69.9832 16.88C72 17.24 75.3076 17.72 77.3647 17.96C82.5681 18.52 85.4319 20.16 91.9664 26.16C95.1933 29.12 95.9597 30.44 96 32.88C96 35.48 94.9916 36.48 90.3529 38.44C83.6168 41.32 76.1546 42.92 65.9092 43.72L60.5 43.5L54.6555 49.96L53.2437 51.4C51.3135 53.3769 45.4364 57.5446 42.3891 59.2493C41.5521 59.7175 40.9283 60 40.6588 60C40.4128 60 40.3309 59.3956 40.3774 58.0272L40.3775 58.0225C40.392 57.597 40.4189 57.0977 40.4571 56.52C40.6992 52.84 41.7479 48.8 43.442 45.28C44.4877 43.0579 45.3187 41.9674 48.2534 41.183C48.2862 41.1742 48.3191 41.1655 48.3524 41.1568C48.5579 41.1032 48.7735 41.051 49 41C49 41 50.0423 40.3054 49.9765 40C49.9364 39.8141 48.5 39 48.5 39C47.5887 38.644 46.5186 38.1192 45.2353 37.4899C44.6442 37.2 44.0079 36.888 43.321 36.56C39.6101 34.76 39.126 34.64 36.3025 34.64C32.6319 34.68 30.2118 35.52 21.1765 39.72C13.7546 43.16 8.99496 44.92 7.62353 44.72C5.44538 44.44 5.12269 40.52 6.97815 36.72C8.30924 34 10.326 31.96 15.0857 28.44ZM42.4478 56.7282C42.4439 56.7873 42.4402 56.8454 42.4367 56.9024C43.3059 56.3721 44.3189 55.7122 45.3682 54.9943C48.0522 53.1582 50.7356 51.1059 51.8127 50.0028L51.8156 49.9999L53.1992 48.5885L59.6453 41.4636L65.8715 41.7168C75.9217 40.9243 83.121 39.3569 89.5667 36.601L89.5745 36.5977C91.9272 35.6036 92.99 34.9901 93.512 34.4756C93.8326 34.1596 93.9981 33.8597 94 32.8963C93.9826 31.9394 93.8356 31.3678 93.4609 30.7402C93.022 30.0051 92.215 29.1021 90.6144 27.6339C87.3603 24.6459 85.1531 22.8715 83.1847 21.7625C81.2882 20.694 79.5463 20.2063 77.1507 19.9485L77.1418 19.9476L77.1329 19.9465C75.0397 19.7023 71.692 19.2166 69.6317 18.8489L69.6234 18.8474L65.0642 17.9934L62.546 13.4887C61.437 11.4855 59.8543 8.85807 59.0421 7.62992C58.2025 6.38229 56.9005 4.85134 55.6961 3.62839C55.2446 3.17002 54.8279 2.77642 54.4743 2.46994C54.3038 2.6815 54.1228 2.92363 53.9437 3.18394C51.7639 6.59381 48.7527 9.10185 43.2787 12.4642L43.2738 12.4672C40.6251 14.0836 39.2938 15.0543 38.5916 15.8414C38.2771 16.194 38.1284 16.4697 38.0434 16.7179C37.954 16.9789 37.8992 17.3149 37.8992 17.84C37.8992 18.5049 37.9983 18.7685 38.0619 18.8846C38.1147 18.9811 38.2398 19.157 38.706 19.4232L38.7373 19.441L38.7679 19.46C38.8805 19.5298 39.038 19.6325 39.1918 19.7618L39.1997 19.7683C39.2878 19.8416 39.7079 20.1911 39.8974 20.7951C40.0248 21.2012 40.0549 21.7536 39.7862 22.3064C39.5405 22.8117 39.1576 23.0826 38.9256 23.2113C38.5163 23.4383 38.1154 23.478 37.9942 23.4901L37.9923 23.4902C37.6574 23.5235 37.266 23.5054 36.9191 23.4815C36.541 23.4555 36.0703 23.4107 35.5089 23.3512C33.3172 23.1672 31.469 22.6143 29.5768 21.6775C28.5544 21.1865 26.2751 20.1703 24 19.1973V36.2241C30.1889 33.4393 32.7421 32.6787 36.2807 32.6401L36.2916 32.64H36.3025C37.7161 32.64 38.7828 32.6631 40.0038 32.9951C41.1543 33.3079 42.3754 33.8785 44.1883 34.7578C44.9437 35.1185 45.6137 35.4472 46.2169 35.7432C47.4446 36.3455 48.3959 36.8122 49.2278 37.1371L49.3614 37.1893L49.487 37.2605L49.4884 37.2613L49.4927 37.2637L49.5073 37.272L49.5586 37.3014C49.6018 37.3263 49.6628 37.3616 49.7357 37.4043C49.8803 37.4889 50.0778 37.6064 50.2805 37.7326C50.4756 37.8541 50.7082 38.004 50.9085 38.1502C51.0038 38.2199 51.1356 38.3202 51.2628 38.4384C51.325 38.4962 51.4242 38.5931 51.5253 38.7217C51.5928 38.8075 51.8314 39.1136 51.9316 39.5787C52.0691 40.2167 51.8794 40.7297 51.7701 40.9671C51.6497 41.2285 51.5003 41.4285 51.3993 41.5519C51.1941 41.8026 50.9596 42.0114 50.7988 42.1464C50.6233 42.2937 50.4536 42.4207 50.3335 42.5076C50.2718 42.5521 50.2195 42.5888 50.181 42.6154L50.1336 42.6478L50.1183 42.6581L50.1129 42.6617L50.1108 42.6632L50.1091 42.6643L49.801 42.8696L49.4397 42.9511C47.7901 43.3229 47.0424 43.7029 46.5932 44.0769C46.1459 44.4494 45.7962 44.9745 45.2517 46.1316L45.2479 46.1395L45.2442 46.1473C43.6599 49.439 42.6778 53.2301 42.4528 56.652C42.4511 56.6776 42.4494 56.703 42.4478 56.7282Z" fill="black"/>
</svg>
