<svg width="96" height="60" viewBox="0 0 96 60" fill="none" xmlns="http://www.w3.org/2000/svg">
<path fill-rule="evenodd" clip-rule="evenodd" d="M15.0857 28.44C17.1832 26.92 18.9983 25.28 19.1597 24.76C19.684 23.2 18.1916 21.92 12.6655 19.2C9.76134 17.76 6.61513 16 5.60672 15.24C4.29962 14.2447 2.62785 12.7538 1.45113 11.5967C1.38778 11.5344 1.32587 11.4731 1.26553 11.4128C0.509703 10.6584 0 10.0761 0 9.92C0 9.68131 0.828045 9.5807 1.97191 9.59337C2.07487 9.59451 2.18039 9.59657 2.28809 9.59952C3.79117 9.64081 5.71985 9.85734 7.05882 10.2C8.38992 10.56 11.3748 11.68 13.7143 12.68C16.0538 13.68 20.2084 15.44 22.9916 16.6C25.7748 17.76 29.1227 19.24 30.4538 19.88C31.8921 20.5932 33.2722 21.0468 34.8411 21.2655C35.1201 21.3044 35.4051 21.3358 35.6975 21.36C35.7995 21.3708 35.8977 21.3811 35.9923 21.3908C36.6828 21.4616 37.1754 21.5015 37.4988 21.5077L37.5156 21.508C38.1114 21.5173 38.1138 21.4076 37.7143 21.16C37.1693 20.8489 36.7664 20.5176 36.4804 20.1196C36.3228 19.9001 36.2007 19.6603 36.1101 19.3923C35.9636 18.9594 35.8992 18.4529 35.8992 17.84C35.8992 15.2 36.9882 13.96 42.2319 10.76C47.637 7.44 50.3395 5.12 52.2756 2.08C53.042 0.96 53.9294 0 54.2924 0C55.1395 0 58.8504 3.76 60.7059 6.52C61.5529 7.8 63.1664 10.48 64.2958 12.52L66.3529 16.2L69.9832 16.88C72 17.24 75.3076 17.72 77.3647 17.96C82.5681 18.52 85.4319 20.16 91.9664 26.16C95.1933 29.12 95.9597 30.44 96 32.88C96 35.48 94.9916 36.48 90.3529 38.44C83.6168 41.32 76.1546 42.92 65.9092 43.72L60.5 43.5L54.6555 49.96L53.2437 51.4C51.3135 53.3769 45.4364 57.5446 42.3891 59.2493C41.5521 59.7175 40.9283 60 40.6588 60C40.4128 60 40.3309 59.3956 40.3774 58.0272L40.3775 58.0225C40.392 57.597 40.4189 57.0977 40.4571 56.52C40.6992 52.84 41.7479 48.8 43.442 45.28C44.4877 43.0579 45.3187 41.9674 48.2534 41.183C48.2862 41.1742 48.3191 41.1655 48.3524 41.1568C48.5579 41.1032 48.7735 41.051 49 41C49 41 50.0423 40.3054 49.9765 40C49.9364 39.8141 48.5 39 48.5 39C47.5887 38.644 46.5186 38.1192 45.2353 37.4899C44.6442 37.2 44.0079 36.888 43.321 36.56C39.6101 34.76 39.126 34.64 36.3025 34.64C32.6319 34.68 30.2118 35.52 21.1765 39.72C13.7546 43.16 8.99496 44.92 7.62353 44.72C5.44538 44.44 5.12269 40.52 6.97815 36.72C8.30924 34 10.326 31.96 15.0857 28.44ZM89.5667 36.601L89.5745 36.5977C91.9272 35.6036 92.99 34.9901 93.512 34.4756C93.8326 34.1596 93.9981 33.8597 94 32.8963C93.9826 31.9394 93.8356 31.3678 93.4609 30.7402C93.022 30.0051 92.215 29.1021 90.6144 27.6339C87.3603 24.6459 85.1531 22.8715 83.1847 21.7625C81.2882 20.694 79.5463 20.2063 77.1507 19.9485L77.1418 19.9476L77.1329 19.9465C75.7303 19.7829 73.7644 19.5108 72 19.2385V41.0914C78.9934 40.1925 84.5118 38.7622 89.5667 36.601Z" fill="black"/>
</svg>
