<svg width="96" height="60" viewBox="0 0 96 60" fill="none" xmlns="http://www.w3.org/2000/svg">
<path d="M43.442 45.28C41.7479 48.8 40.6992 52.84 40.4571 56.52C40.2958 58.96 40.3361 60 40.6588 60C41.9092 60 50.7832 53.92 53.2437 51.4L54.6555 49.96L60.5 43.5L65.9092 43.72C76.1546 42.92 83.6168 41.32 90.3529 38.44C94.9916 36.48 96 35.48 96 32.88C95.9597 30.44 95.1933 29.12 91.9664 26.16C85.4319 20.16 82.5681 18.52 77.3647 17.96C75.3076 17.72 72 17.24 69.9832 16.88L66.3529 16.2L64.2958 12.52C63.1664 10.48 61.5529 7.8 60.7059 6.52C58.8504 3.76 55.1395 0 54.2924 0C53.9294 0 53.042 0.96 52.2756 2.08C50.3395 5.12 47.637 7.44 42.2319 10.76C36.9882 13.96 35.8992 15.2 35.8992 17.84C35.8992 19.52 36.3832 20.4 37.7143 21.16C38.3597 21.56 37.9563 21.6 35.6975 21.36C33.7613 21.2 32.1479 20.72 30.4538 19.88C29.1227 19.24 25.7748 17.76 22.9916 16.6C20.2084 15.44 16.0538 13.68 13.7143 12.68C11.3748 11.68 8.38992 10.56 7.05882 10.2C4.55798 9.56 0 9.36 0 9.92C0 10.32 3.3479 13.52 5.60672 15.24C6.61513 16 9.76134 17.76 12.6655 19.2C18.1916 21.92 19.684 23.2 19.1597 24.76C18.9983 25.28 17.1832 26.92 15.0857 28.44C10.326 31.96 8.30924 34 6.97815 36.72C5.12269 40.52 5.44538 44.44 7.62353 44.72C8.99496 44.92 13.7546 43.16 21.1765 39.72C30.2118 35.52 32.6319 34.68 36.3025 34.64C39.126 34.64 39.6101 34.76 43.321 36.56C45.4992 37.6 47.1689 38.48 48.5 39C48.5 39 49.9364 39.8141 49.9765 40C50.0423 40.3054 49 41 49 41C45.4504 41.8 44.5714 42.88 43.442 45.28Z" fill="black"/>
</svg>
